<?xml version="1.0" encoding="utf-8"?>
<!-- Generator: Adobe Illustrator 22.0.1, SVG Export Plug-In . SVG Version: 6.00 Build 0)  -->
<svg version="1.1" id="Layer_1" xmlns="http://www.w3.org/2000/svg" xmlns:xlink="http://www.w3.org/1999/xlink" x="0px" y="0px"
	 viewBox="0 0 100 100" style="enable-background:new 0 0 100 100;" xml:space="preserve">
<style type="text/css">
	.st0{fill:#DEDDE8;}
	.st1{fill:url(#SVGID_1_);}
	.st2{fill:none;stroke:url(#SVGID_2_);stroke-width:2;stroke-miterlimit:10;}
	.st3{fill:none;stroke:#DEDDE8;stroke-width:2;stroke-miterlimit:10;}
	.st4{fill:url(#SVGID_3_);}
	.st5{fill:#DEDCE7;}
	.st6{fill:url(#SVGID_4_);}
	.st7{fill:#FFFFFF;}
</style>
<g>
	<path class="st0" d="M82.6,40.9L80,43.5c-0.4,0.4-1,0.4-1.4,0l0,0c-0.4-0.4-0.4-1,0-1.4l2.6-2.6c0.4-0.4,1-0.4,1.4,0l0,0
		C83,39.8,83,40.5,82.6,40.9z"/>
	<path class="st0" d="M87.4,39.7L85.1,42c-0.4,0.4-1,0.4-1.4,0l0,0c-0.4-0.4-0.4-1,0-1.4l2.3-2.3c0.4-0.4,1-0.4,1.4,0l0,0
		C87.8,38.7,87.8,39.3,87.4,39.7z"/>
	<path class="st0" d="M83.8,43.5l-2.6-2.6c-0.4-0.4-0.4-1,0-1.4l0,0c0.4-0.4,1-0.4,1.4,0l2.6,2.6c0.4,0.4,0.4,1,0,1.4l0,0
		C84.8,43.9,84.2,43.9,83.8,43.5z"/>
	<path class="st0" d="M89.2,42.9L86,39.7c-0.4-0.4-0.4-1,0-1.4l0,0c0.4-0.4,1-0.4,1.4,0l3.2,3.2c0.4,0.4,0.4,1,0,1.4l0,0
		C90.2,43.3,89.6,43.3,89.2,42.9z"/>
</g>
<g>
	<path class="st0" d="M13.7,40.9l-2.6,2.6c-0.4,0.4-1,0.4-1.4,0l0,0c-0.4-0.4-0.4-1,0-1.4l2.6-2.6c0.4-0.4,1-0.4,1.4,0l0,0
		C14.1,39.8,14.1,40.5,13.7,40.9z"/>
	<path class="st0" d="M18.5,39.7L16.2,42c-0.4,0.4-1,0.4-1.4,0l0,0c-0.4-0.4-0.4-1,0-1.4l2.3-2.3c0.4-0.4,1-0.4,1.4,0l0,0
		C18.9,38.7,18.9,39.3,18.5,39.7z"/>
	<path class="st0" d="M14.9,43.5l-2.6-2.6c-0.4-0.4-0.4-1,0-1.4l0,0c0.4-0.4,1-0.4,1.4,0l2.6,2.6c0.4,0.4,0.4,1,0,1.4l0,0
		C15.9,43.9,15.3,43.9,14.9,43.5z"/>
	<path class="st0" d="M20.3,42.9L17,39.7c-0.4-0.4-0.4-1,0-1.4l0,0c0.4-0.4,1-0.4,1.4,0l3.2,3.2c0.4,0.4,0.4,1,0,1.4l0,0
		C21.3,43.3,20.7,43.3,20.3,42.9z"/>
</g>
<g>
	
		<linearGradient id="SVGID_1_" gradientUnits="userSpaceOnUse" x1="36.5564" y1="59.125" x2="63.5564" y2="59.125" gradientTransform="matrix(1 0 0 -1 0 100)">
		<stop  offset="0" style="stop-color:#20E2AD"/>
		<stop  offset="1" style="stop-color:#08AEEC"/>
	</linearGradient>
	<path class="st1" d="M36.5,30.1c0-1.5,1.3-2.7,2.7-2.7h21.6c1.5,0,2.7,1.3,2.7,2.7v21.6c0,1.5-1.3,2.7-2.7,2.7H39.2
		c-1.5,0-2.7-1.3-2.7-2.7V30.1z"/>
	
		<linearGradient id="SVGID_2_" gradientUnits="userSpaceOnUse" x1="35.5562" y1="59.125" x2="64.5562" y2="59.125" gradientTransform="matrix(1 0 0 -1 0 100)">
		<stop  offset="0" style="stop-color:#20E2AD"/>
		<stop  offset="1" style="stop-color:#08AEEC"/>
	</linearGradient>
	<path class="st2" d="M36.5,30.1c0-1.5,1.3-2.7,2.7-2.7h21.6c1.5,0,2.7,1.3,2.7,2.7v21.6c0,1.5-1.3,2.7-2.7,2.7H39.2
		c-1.5,0-2.7-1.3-2.7-2.7V30.1z"/>
</g>
<g>
	<path class="st3" d="M2.5,30.1c0-1.5,1.3-2.7,2.7-2.7h21.6c1.5,0,2.7,1.3,2.7,2.7v21.6c0,1.5-1.3,2.7-2.7,2.7H5.2
		c-1.5,0-2.7-1.3-2.7-2.7V30.1z"/>
</g>
<g>
	<path class="st3" d="M70.5,30.1c0-1.5,1.4-2.7,2.8-2.7h21.5c1.5,0,2.7,1.3,2.7,2.7v21.6c0,1.5-1.2,2.7-2.7,2.7H73.2
		c-1.5,0-2.7-1.3-2.7-2.7V30.1L70.5,30.1z"/>
</g>
<linearGradient id="SVGID_3_" gradientUnits="userSpaceOnUse" x1="70.5058" y1="66.875" x2="76.7483" y2="66.875">
	<stop  offset="0" style="stop-color:#20E2AD"/>
	<stop  offset="1" style="stop-color:#08AEEC"/>
</linearGradient>
<path class="st4" d="M76.5,66.2L72.3,62c-0.4-0.4-1-0.4-1.4,0s-0.4,1,0,1.4l3.5,3.5l-3.5,3.5c-0.4,0.4-0.4,1,0,1.4s1,0.4,1.4,0
	l4.2-4.2c0.2-0.2,0.3-0.5,0.3-0.7C76.7,66.6,76.7,66.4,76.5,66.2z"/>
<path class="st5" d="M24.7,67.6l4.2,4.2c0.4,0.4,1,0.4,1.4,0c0.4-0.4,0.4-1,0-1.4l-3.5-3.5l3.5-3.5c0.4-0.4,0.4-1,0-1.4
	c-0.4-0.4-1-0.4-1.4,0l-4.2,4.2c-0.2,0.2-0.3,0.5-0.3,0.7C24.5,67.1,24.5,67.4,24.7,67.6z"/>
<circle class="st5" cx="41.6" cy="66.9" r="1"/>
<linearGradient id="SVGID_4_" gradientUnits="userSpaceOnUse" x1="48.5681" y1="66.875" x2="52.5681" y2="66.875">
	<stop  offset="0" style="stop-color:#20E2AD"/>
	<stop  offset="1" style="stop-color:#08AEEC"/>
</linearGradient>
<circle class="st6" cx="50.6" cy="66.9" r="2"/>
<circle class="st5" cx="59.6" cy="66.9" r="1"/>
<g>
	<path class="st7" d="M48.4,40.9l-2.6,2.6c-0.4,0.4-1,0.4-1.4,0l0,0c-0.4-0.4-0.4-1,0-1.4l2.6-2.6c0.4-0.4,1-0.4,1.4,0l0,0
		C48.8,39.8,48.8,40.5,48.4,40.9z"/>
	<path class="st7" d="M53.2,39.7L50.9,42c-0.4,0.4-1,0.4-1.4,0l0,0c-0.4-0.4-0.4-1,0-1.4l2.3-2.3c0.4-0.4,1-0.4,1.4,0l0,0
		C53.6,38.7,53.6,39.3,53.2,39.7z"/>
	<path class="st7" d="M49.6,43.5L47,40.9c-0.4-0.4-0.4-1,0-1.4l0,0c0.4-0.4,1-0.4,1.4,0l2.6,2.6c0.4,0.4,0.4,1,0,1.4l0,0
		C50.6,43.9,50,43.9,49.6,43.5z"/>
	<path class="st7" d="M55,42.9l-3.2-3.2c-0.4-0.4-0.4-1,0-1.4l0,0c0.4-0.4,1-0.4,1.4,0l3.2,3.2c0.4,0.4,0.4,1,0,1.4l0,0
		C56,43.3,55.3,43.3,55,42.9z"/>
</g>
</svg>
