<?xml version="1.0" encoding="utf-8"?>
<!-- Generator: Adobe Illustrator 22.0.1, SVG Export Plug-In . SVG Version: 6.00 Build 0)  -->
<svg version="1.1" id="Layer_1" xmlns="http://www.w3.org/2000/svg" xmlns:xlink="http://www.w3.org/1999/xlink" x="0px" y="0px"
	 viewBox="0 0 100 100" style="enable-background:new 0 0 100 100;" xml:space="preserve">
<style type="text/css">
	.st0{fill:url(#XMLID_2_);}
	.st1{fill:url(#SVGID_1_);}
	.st2{fill:url(#SVGID_2_);}
	.st3{fill:#DEDDE8;}
</style>
<g>
	<g id="XMLID_5_">
		<g id="XMLID_7_">
			<linearGradient id="XMLID_2_" gradientUnits="userSpaceOnUse" x1="84.4" y1="30" x2="90.5087" y2="30">
				<stop  offset="0" style="stop-color:#20E2AD"/>
				<stop  offset="1" style="stop-color:#08AEEC"/>
			</linearGradient>
			<path id="XMLID_9_" class="st0" d="M87.8,29.3h-0.7c-0.8,0-1.4-0.6-1.4-1.4s0.6-1.4,1.4-1.4h2.8c0.4,0,0.6-0.3,0.6-0.6
				c0-0.3-0.3-0.6-0.6-0.6h-1.4v-0.7c0-0.4-0.3-0.6-0.6-0.6c-0.3,0-0.6,0.3-0.6,0.6v0.7l0,0c-1.5,0-2.7,1.2-2.7,2.7s1.2,2.7,2.7,2.7
				H88c0.8,0,1.4,0.6,1.4,1.4s-0.6,1.4-1.4,1.4h-3c-0.4,0-0.6,0.3-0.6,0.6c0,0.3,0.3,0.6,0.6,0.6h2.1v0.7c0,0.4,0.3,0.6,0.6,0.6
				c0.3,0,0.6-0.3,0.6-0.6v-0.8c1.2-0.3,2.1-1.4,2.1-2.6C90.5,30.5,89.3,29.3,87.8,29.3z"/>
		</g>
	</g>
	<g>
		<linearGradient id="SVGID_1_" gradientUnits="userSpaceOnUse" x1="9.5" y1="27.5" x2="69.5" y2="27.5">
			<stop  offset="0" style="stop-color:#20E2AD"/>
			<stop  offset="1" style="stop-color:#08AEEC"/>
		</linearGradient>
		<path class="st1" d="M68.5,28.5h-58c-0.6,0-1-0.4-1-1l0,0c0-0.6,0.4-1,1-1h58c0.6,0,1,0.4,1,1l0,0C69.5,28,69,28.5,68.5,28.5z"/>
		<linearGradient id="SVGID_2_" gradientUnits="userSpaceOnUse" x1="9.5" y1="32.4" x2="59.5" y2="32.4">
			<stop  offset="0" style="stop-color:#20E2AD"/>
			<stop  offset="1" style="stop-color:#08AEEC"/>
		</linearGradient>
		<path class="st2" d="M58.5,33.4h-48c-0.6,0-1-0.4-1-1l0,0c0-0.6,0.4-1,1-1h48c0.6,0,1,0.4,1,1l0,0C59.5,33,59,33.4,58.5,33.4z"/>
	</g>
	<g id="XMLID_10_">
		<g id="XMLID_11_">
			<path id="XMLID_12_" class="st3" d="M87.8,49.3h-0.7c-0.8,0-1.4-0.6-1.4-1.4c0-0.8,0.6-1.4,1.4-1.4h2.8c0.4,0,0.6-0.3,0.6-0.6
				c0-0.4-0.3-0.6-0.6-0.6h-1.4v-0.7c0-0.4-0.3-0.6-0.6-0.6c-0.3,0-0.6,0.3-0.6,0.6v0.7l0,0c-1.5,0-2.7,1.2-2.7,2.7s1.2,2.7,2.7,2.7
				H88c0.8,0,1.4,0.6,1.4,1.4s-0.6,1.4-1.4,1.4h-3c-0.4,0-0.6,0.3-0.6,0.6c0,0.4,0.3,0.6,0.6,0.6h2.1v0.7c0,0.4,0.3,0.6,0.6,0.6
				c0.3,0,0.6-0.3,0.6-0.6v-0.8c1.2-0.3,2.1-1.4,2.1-2.6C90.5,50.5,89.3,49.3,87.8,49.3z"/>
		</g>
	</g>
	<g>
		<path class="st3" d="M68.5,48.5h-58c-0.6,0-1-0.4-1-1l0,0c0-0.6,0.4-1,1-1h58c0.6,0,1,0.4,1,1l0,0C69.5,48.1,69,48.5,68.5,48.5z"
			/>
		<path class="st3" d="M58.5,53.5h-48c-0.6,0-1-0.4-1-1l0,0c0-0.6,0.4-1,1-1h48c0.6,0,1,0.4,1,1l0,0C59.5,53,59,53.5,58.5,53.5z"/>
	</g>
	<g id="XMLID_13_">
		<g id="XMLID_15_">
			<path id="XMLID_40_" class="st3" d="M87.8,69.3h-0.7c-0.8,0-1.4-0.6-1.4-1.4s0.6-1.4,1.4-1.4h2.8c0.4,0,0.6-0.3,0.6-0.6
				s-0.3-0.6-0.6-0.6h-1.4v-0.7c0-0.4-0.3-0.6-0.6-0.6c-0.3,0-0.6,0.3-0.6,0.6v0.7l0,0c-1.5,0-2.7,1.2-2.7,2.7s1.2,2.7,2.7,2.7H88
				c0.8,0,1.4,0.6,1.4,1.4s-0.6,1.4-1.4,1.4h-3c-0.4,0-0.6,0.3-0.6,0.6c0,0.4,0.3,0.6,0.6,0.6h2.1v0.7c0,0.4,0.3,0.6,0.6,0.6
				c0.3,0,0.6-0.3,0.6-0.6v-0.8c1.2-0.3,2.1-1.4,2.1-2.6C90.5,70.5,89.3,69.3,87.8,69.3z"/>
		</g>
	</g>
	<g>
		<path class="st3" d="M68.5,68.6h-58c-0.6,0-1-0.4-1-1l0,0c0-0.6,0.4-1,1-1h58c0.6,0,1,0.4,1,1l0,0C69.5,68.1,69,68.6,68.5,68.6z"
			/>
		<path class="st3" d="M58.5,73.4h-48c-0.6,0-1-0.4-1-1l0,0c0-0.6,0.4-1,1-1h48c0.6,0,1,0.4,1,1l0,0C59.5,73.1,59,73.4,58.5,73.4z"
			/>
	</g>
</g>
</svg>
