<?xml version="1.0" encoding="utf-8"?>
<!-- Generator: Adobe Illustrator 22.0.1, SVG Export Plug-In . SVG Version: 6.00 Build 0)  -->
<svg version="1.1" id="Layer_1" xmlns="http://www.w3.org/2000/svg" xmlns:xlink="http://www.w3.org/1999/xlink" x="0px" y="0px"
	 viewBox="0 0 100 100" style="enable-background:new 0 0 100 100;" xml:space="preserve">
<style type="text/css">
	.st0{fill:#DEDDE8;}
	.st1{fill:url(#SVGID_1_);}
	.st2{fill:url(#SVGID_2_);}
	.st3{fill:none;stroke:url(#SVGID_3_);stroke-width:2;stroke-miterlimit:10;}
	.st4{fill:url(#SVGID_4_);}
</style>
<path class="st0" d="M1.9,61.4h96.2c0.6,0,1,0.4,1,1l0,0c0,0.6-0.4,1-1,1H1.9c-0.6,0-1-0.4-1-1l0,0C0.9,61.9,1.4,61.4,1.9,61.4z"/>
<path class="st0" d="M12.5,68.4h75c0.6,0,1,0.4,1,1l0,0c0,0.6-0.4,1-1,1h-75c-0.6,0-1-0.4-1-1l0,0C11.5,68.9,11.9,68.4,12.5,68.4z"
	/>
<path class="st0" d="M22.5,75.3h55c0.6,0,1,0.4,1,1l0,0c0,0.6-0.4,1-1,1h-55c-0.6,0-1-0.4-1-1l0,0C21.5,75.8,21.9,75.3,22.5,75.3z"
	/>
<g>
	<linearGradient id="SVGID_1_" gradientUnits="userSpaceOnUse" x1="53.7532" y1="23.6" x2="71.8667" y2="23.6">
		<stop  offset="0" style="stop-color:#20E2AD"/>
		<stop  offset="1" style="stop-color:#08AEEC"/>
	</linearGradient>
	<path class="st1" d="M54,19.7c0,0.6,0.4,1,1,1h5.9c2.8,0,5.1,2,5.6,4.6l-1-1c-0.4-0.4-1-0.4-1.4,0s-0.4,1,0,1.4l2.9,2.7l0,0
		c0.2,0.2,0.5,0.3,0.7,0.3c0.3,0,0.5-0.1,0.7-0.3l0,0l2.7-2.9c0.4-0.4,0.4-1,0-1.4s-1-0.4-1.4,0l-1.2,1.2c-0.5-3.8-3.7-6.8-7.7-6.8
		h-5.9C54.5,18.7,54,19.1,54,19.7L54,19.7z M67.7,26.4L67.7,26.4L67.7,26.4L67.7,26.4z"/>
	
		<linearGradient id="SVGID_2_" gradientUnits="userSpaceOnUse" x1="30.9053" y1="-38.6658" x2="41.0412" y2="-38.6658" gradientTransform="matrix(-6.123234e-17 1 -1 -6.123234e-17 -1.3658 11.566)">
		<stop  offset="0" style="stop-color:#20E2AD"/>
		<stop  offset="1" style="stop-color:#08AEEC"/>
	</linearGradient>
	<path class="st2" d="M46,51.6c0-0.6-0.4-1-1-1h-5.9c-2.8,0-5.1-2-5.6-4.6l1,1c0.4,0.4,1,0.4,1.4,0s0.4-1,0-1.4L33,42.9l0,0
		c-0.2-0.2-0.5-0.3-0.7-0.3c-0.3,0-0.5,0.1-0.7,0.3l0,0l-2.7,2.9c-0.4,0.4-0.4,1,0,1.4s1,0.4,1.4,0l1.2-1.2c0.5,3.8,3.7,6.8,7.7,6.8
		h5.9C45.5,52.6,46,52.2,46,51.6L46,51.6z M32.3,44.9L32.3,44.9L32.3,44.9L32.3,44.9z"/>
	<g>
		<linearGradient id="SVGID_3_" gradientUnits="userSpaceOnUse" x1="39.2565" y1="35.5" x2="61.3048" y2="35.5">
			<stop  offset="0" style="stop-color:#20E2AD"/>
			<stop  offset="1" style="stop-color:#08AEEC"/>
		</linearGradient>
		<path class="st3" d="M40.3,28.2c0-1.5,1.2-2.7,2.7-2.7h14.7c1.5,0,2.7,1.2,2.7,2.7v14.7c0,1.5-1.2,2.7-2.7,2.7H43
			c-1.5,0-2.7-1.2-2.7-2.7V28.2z"/>
	</g>
</g>
<linearGradient id="SVGID_4_" gradientUnits="userSpaceOnUse" x1="33.19" y1="31.2408" x2="33.19" y2="18.561" gradientTransform="matrix(6.123234e-17 1 1 -6.123234e-17 25.31 55.91)">
	<stop  offset="0" style="stop-color:#20E2AD"/>
	<stop  offset="1" style="stop-color:#08AEEC"/>
</linearGradient>
<path class="st4" d="M53.4,92.6l2.7-2.9c0.2-0.2,0.3-0.5,0.3-0.7c0-0.3-0.1-0.5-0.3-0.7l-2.9-2.7c-0.4-0.4-1-0.4-1.4,0s-0.4,1,0,1.4
	l1.2,1.2h-8.4c-0.6,0-1,0.4-1,1l0,0c0,0.6,0.4,1,1,1h4.1H53l-1,1c-0.4,0.4-0.4,1,0,1.4C52.4,93,53,93,53.4,92.6z"/>
</svg>
