<svg xmlns="http://www.w3.org/2000/svg" width="188" height="147" viewBox="0 0 188 147"><defs><style>.a,.b,.d,.g{fill:none;}.a,.b,.d{stroke:#fff;}.a{stroke-width:3px;}.b{stroke-width:2px;}.c{fill:#f94e60;}.e{fill:#fff;}.f{stroke:none;}</style></defs><g transform="translate(-73 -109)"><g class="a" transform="translate(131 124)"><ellipse class="f" cx="57" cy="55.5" rx="57" ry="55.5"/><ellipse class="g" cx="57" cy="55.5" rx="55.5" ry="54"/></g><g class="b" transform="translate(123 116)"><ellipse class="f" cx="65" cy="63.5" rx="65" ry="63.5"/><ellipse class="g" cx="65" cy="63.5" rx="64" ry="62.5"/></g><g class="b" transform="translate(115 109)"><ellipse class="f" cx="73" cy="71" rx="73" ry="71"/><ellipse class="g" cx="73" cy="71" rx="72" ry="70"/></g><rect class="c" width="4.549" height="9.098" transform="translate(232.483 115.726) rotate(41)"/><rect class="c" width="4.549" height="9.098" transform="translate(125.582 183.961) rotate(41)"/><rect class="c" width="4.549" height="9.098" transform="translate(201.44 247.135) rotate(-13)"/><g class="d" transform="translate(253 116)"><circle class="f" cx="4" cy="4" r="4"/><circle class="g" cx="4" cy="4" r="3.5"/></g><g class="d" transform="translate(73 210)"><circle class="f" cx="5" cy="5" r="5"/><circle class="g" cx="5" cy="5" r="4.5"/></g><g class="d" transform="translate(129 109)"><circle class="f" cx="3.5" cy="3.5" r="3.5"/><circle class="g" cx="3.5" cy="3.5" r="3"/></g><path class="e" d="M19.11,66.025,36.195,83.058a1.247,1.247,0,0,1,0,1.766L19.11,101.857a1.247,1.247,0,0,1-1.766,0l-.737-.737a1.247,1.247,0,0,1,0-1.766L30.316,85.707H1.246A1.25,1.25,0,0,1,0,84.46V83.422a1.25,1.25,0,0,1,1.246-1.246h29.07l-13.7-13.647a1.247,1.247,0,0,1,0-1.766l.737-.737A1.235,1.235,0,0,1,19.11,66.025ZM53.176,98.9V68.985A4.987,4.987,0,0,0,48.191,64H34.481a1.25,1.25,0,0,0-1.246,1.246v.831a1.25,1.25,0,0,0,1.246,1.246H48.191a1.667,1.667,0,0,1,1.662,1.662V98.9a1.667,1.667,0,0,1-1.662,1.662H34.481a1.25,1.25,0,0,0-1.246,1.246v.831a1.25,1.25,0,0,0,1.246,1.246H48.191A4.987,4.987,0,0,0,53.176,98.9Z" transform="translate(160.412 96.059)"/></g></svg>