<svg xmlns="http://www.w3.org/2000/svg" width="224" height="127.649" viewBox="0 0 224 127.649">
  <g id="Group_32" data-name="Group 32" transform="translate(-95 -219.676)">
    <rect id="Rectangle_427" data-name="Rectangle 427" width="165" height="24" rx="12" transform="translate(141 319)" fill="#f94e60" opacity="0.15"/>
    <rect id="Rectangle_428" data-name="Rectangle 428" width="165" height="24" rx="12" transform="translate(124 292)" fill="#f94e60" opacity="0.15"/>
    <rect id="Rectangle_429" data-name="Rectangle 429" width="165" height="24" rx="12" transform="translate(154 265)" fill="#f94e60" opacity="0.15"/>
    <rect id="Rectangle_430" data-name="Rectangle 430" width="165" height="24" rx="12" transform="translate(95 238)" fill="#f94e60" opacity="0.15"/>
    <path id="search" d="M67.507,63.936,50.381,46.81a1.576,1.576,0,0,0-1.128-.465H47.885a27.336,27.336,0,1,0-1.54,1.553v1.354a1.632,1.632,0,0,0,.465,1.128L63.936,67.507a1.6,1.6,0,0,0,2.257,0l1.314-1.314A1.6,1.6,0,0,0,67.507,63.936ZM27.613,50.979A23.365,23.365,0,1,1,50.979,27.613,23.349,23.349,0,0,1,27.613,50.979Z" transform="translate(192.025 261.025)" fill="#f94e60"/>
    <path id="question-circle" d="M20,24.065a1.355,1.355,0,1,0,1.355,1.355A1.355,1.355,0,0,0,20,24.065Zm.371-1.161H19.6a.581.581,0,0,1-.581-.581V22.3c0-3.4,3.747-3.078,3.747-5.2,0-.969-.859-1.946-2.779-1.946a3.2,3.2,0,0,0-2.865,1.388.579.579,0,0,1-.786.115l-.636-.443a.58.58,0,0,1-.128-.831,5.078,5.078,0,0,1,4.415-2.165c2.532,0,4.715,1.44,4.715,3.881,0,3.262-3.747,3.089-3.747,5.2v.018a.581.581,0,0,1-.581.581ZM20,9.548A10.452,10.452,0,1,1,9.548,20,10.453,10.453,0,0,1,20,9.548M20,8A12,12,0,1,0,32,20,12,12,0,0,0,20,8Z" transform="translate(235 242)" fill="#86868b"/>
    <g id="Ellipse_66" data-name="Ellipse 66" transform="translate(303 263)" fill="none" stroke="#f94e60" stroke-width="1">
      <circle cx="6" cy="6" r="6" stroke="none"/>
      <circle cx="6" cy="6" r="5.5" fill="none"/>
    </g>
    <path id="plus" d="M8.758,67.913H5.031V64.186A.186.186,0,0,0,4.845,64H4.1a.186.186,0,0,0-.186.186v3.727H.186A.186.186,0,0,0,0,68.1v.745a.186.186,0,0,0,.186.186H3.913v3.727a.186.186,0,0,0,.186.186h.745a.186.186,0,0,0,.186-.186V69.031H8.758a.186.186,0,0,0,.186-.186V68.1A.186.186,0,0,0,8.758,67.913Z" transform="translate(255.255 174.421) rotate(45)" fill="#f94e60"/>
    <path id="plus-2" data-name="plus" d="M8.758,67.913H5.031V64.186A.186.186,0,0,0,4.845,64H4.1a.186.186,0,0,0-.186.186v3.727H.186A.186.186,0,0,0,0,68.1v.745a.186.186,0,0,0,.186.186H3.913v3.727a.186.186,0,0,0,.186.186h.745a.186.186,0,0,0,.186-.186V69.031H8.758a.186.186,0,0,0,.186-.186V68.1A.186.186,0,0,0,8.758,67.913Z" transform="translate(275.255 289.421) rotate(45)" fill="#f94e60"/>
    <path id="plus-3" data-name="plus" d="M30.735,77.733H17.656V64.654A.654.654,0,0,0,17,64H14.387a.654.654,0,0,0-.654.654V77.733H.654A.654.654,0,0,0,0,78.387V81a.654.654,0,0,0,.654.654H13.733V94.735a.654.654,0,0,0,.654.654H17a.654.654,0,0,0,.654-.654V81.656H30.735A.654.654,0,0,0,31.389,81V78.387A.654.654,0,0,0,30.735,77.733Z" transform="translate(265.255 221.55) rotate(45)" fill="#f94e60"/>
    <path id="plus-4" data-name="plus" d="M8.758,67.913H5.031V64.186A.186.186,0,0,0,4.845,64H4.1a.186.186,0,0,0-.186.186v3.727H.186A.186.186,0,0,0,0,68.1v.745a.186.186,0,0,0,.186.186H3.913v3.727a.186.186,0,0,0,.186.186h.745a.186.186,0,0,0,.186-.186V69.031H8.758a.186.186,0,0,0,.186-.186V68.1A.186.186,0,0,0,8.758,67.913Z" transform="translate(342.255 258.421) rotate(45)" fill="#f94e60"/>
    <g id="Ellipse_67" data-name="Ellipse 67" transform="translate(111 237)" fill="none" stroke="#f94e60" stroke-width="1">
      <circle cx="6" cy="6" r="6" stroke="none"/>
      <circle cx="6" cy="6" r="5.5" fill="none"/>
    </g>
    <g id="Ellipse_68" data-name="Ellipse 68" transform="translate(134 315)" fill="none" stroke="#f94e60" stroke-width="1">
      <circle cx="6" cy="6" r="6" stroke="none"/>
      <circle cx="6" cy="6" r="5.5" fill="none"/>
    </g>
  </g>
</svg>
