<svg xmlns="http://www.w3.org/2000/svg" width="210.14" height="147" viewBox="0 0 210.14 147"><defs><style>.a,.b,.d,.g{fill:none;}.a,.b,.d{stroke:#fff;}.a{stroke-width:3px;}.b{stroke-width:2px;}.c{fill:#f94e60;}.e{fill:#fff;}.f{stroke:none;}</style></defs><g transform="translate(-73 -109)"><g class="a" transform="translate(131 124)"><ellipse class="f" cx="57" cy="55.5" rx="57" ry="55.5"/><ellipse class="g" cx="57" cy="55.5" rx="55.5" ry="54"/></g><g class="b" transform="translate(123 116)"><ellipse class="f" cx="65" cy="63.5" rx="65" ry="63.5"/><ellipse class="g" cx="65" cy="63.5" rx="64" ry="62.5"/></g><g class="b" transform="translate(115 109)"><ellipse class="f" cx="73" cy="71" rx="73" ry="71"/><ellipse class="g" cx="73" cy="71" rx="72" ry="70"/></g><rect class="c" width="4.549" height="9.098" transform="translate(232.483 115.726) rotate(41)"/><rect class="c" width="4.549" height="9.098" transform="translate(125.582 183.961) rotate(41)"/><rect class="c" width="4.549" height="9.098" transform="translate(201.44 247.135) rotate(-13)"/><g class="d" transform="translate(253 116)"><circle class="f" cx="4" cy="4" r="4"/><circle class="g" cx="4" cy="4" r="3.5"/></g><g class="d" transform="translate(73 210)"><circle class="f" cx="5" cy="5" r="5"/><circle class="g" cx="5" cy="5" r="4.5"/></g><g class="d" transform="translate(129 109)"><circle class="f" cx="3.5" cy="3.5" r="3.5"/><circle class="g" cx="3.5" cy="3.5" r="3"/></g><path class="e" d="M13.982,70.247H8.032V64.3a.3.3,0,0,0-.3-.3H6.545a.3.3,0,0,0-.3.3v5.95H.3a.3.3,0,0,0-.3.3v1.19a.3.3,0,0,0,.3.3h5.95v5.95a.3.3,0,0,0,.3.3h1.19a.3.3,0,0,0,.3-.3v-5.95h5.95a.3.3,0,0,0,.3-.3v-1.19A.3.3,0,0,0,13.982,70.247Z" transform="translate(268.86 79.86)"/><path class="e" d="M13.982,70.247H8.032V64.3a.3.3,0,0,0-.3-.3H6.545a.3.3,0,0,0-.3.3v5.95H.3a.3.3,0,0,0-.3.3v1.19a.3.3,0,0,0,.3.3h5.95v5.95a.3.3,0,0,0,.3.3h1.19a.3.3,0,0,0,.3-.3v-5.95h5.95a.3.3,0,0,0,.3-.3v-1.19A.3.3,0,0,0,13.982,70.247Z" transform="translate(82.86 171.86)"/><path class="e" d="M53.011,18.789H45.63V11.407a.673.673,0,0,0-.671-.671H43.617a.673.673,0,0,0-.671.671v7.381H35.565a.673.673,0,0,0-.671.671V20.8a.673.673,0,0,0,.671.671h7.381v7.381a.673.673,0,0,0,.671.671h1.342a.673.673,0,0,0,.671-.671V21.473h7.381a.673.673,0,0,0,.671-.671V19.46A.673.673,0,0,0,53.011,18.789ZM26.3,24.157c-2.407,0-3.565,1.342-7.516,1.342s-5.1-1.342-7.516-1.342A11.276,11.276,0,0,0,0,35.43V38.92a4.027,4.027,0,0,0,4.026,4.026H33.551a4.027,4.027,0,0,0,4.026-4.026V35.43A11.276,11.276,0,0,0,26.3,24.157ZM34.893,38.92a1.346,1.346,0,0,1-1.342,1.342H4.026A1.346,1.346,0,0,1,2.684,38.92V35.43a8.6,8.6,0,0,1,8.589-8.589c1.644,0,3.28,1.342,7.516,1.342s5.872-1.342,7.516-1.342a8.6,8.6,0,0,1,8.589,8.589Zm-16.1-17.447A10.736,10.736,0,1,0,8.052,10.736,10.736,10.736,0,0,0,18.789,21.473Zm0-18.789a8.052,8.052,0,1,1-8.052,8.052A8.065,8.065,0,0,1,18.789,2.684Z" transform="translate(162.159 154.527)"/></g></svg>