<svg xmlns="http://www.w3.org/2000/svg" width="34.882" height="28.331" viewBox="0 0 34.882 28.331">
  <path id="twitter" d="M31.3,55.143c.022.31.022.62.022.93,0,9.451-7.193,20.341-20.341,20.341A20.2,20.2,0,0,1,0,73.2a14.789,14.789,0,0,0,1.726.089A14.318,14.318,0,0,0,10.6,70.238,7.162,7.162,0,0,1,3.918,65.28a9.015,9.015,0,0,0,1.35.111,7.561,7.561,0,0,0,1.881-.243,7.15,7.15,0,0,1-5.733-7.016v-.088a7.2,7.2,0,0,0,3.231.907,7.16,7.16,0,0,1-2.213-9.562,20.321,20.321,0,0,0,14.741,7.481A8.071,8.071,0,0,1,17,55.231,7.156,7.156,0,0,1,29.371,50.34a14.075,14.075,0,0,0,4.537-1.726,7.13,7.13,0,0,1-3.143,3.94,14.332,14.332,0,0,0,4.117-1.107A15.368,15.368,0,0,1,31.3,55.143Z" transform="translate(0 -48.082)" fill="#00acee"/>
</svg>
