<?xml version="1.0" encoding="utf-8"?>
<!-- Generator: Adobe Illustrator 22.0.1, SVG Export Plug-In . SVG Version: 6.00 Build 0)  -->
<svg version="1.1" id="Layer_1" xmlns="http://www.w3.org/2000/svg" xmlns:xlink="http://www.w3.org/1999/xlink" x="0px" y="0px"
	 viewBox="0 0 100 100" style="enable-background:new 0 0 100 100;" xml:space="preserve">
<style type="text/css">
	.st0{fill:#DEDDE8;}
	.st1{fill:none;stroke:url(#SVGID_1_);stroke-width:2;stroke-miterlimit:10;}
	.st2{fill:none;stroke:#DFDEE9;stroke-width:2;stroke-miterlimit:10;}
	.st3{fill:none;stroke:url(#SVGID_2_);stroke-width:2;stroke-miterlimit:10;}
	.st4{fill:#DDDDE9;}
</style>
<g>
	<g>
		<path class="st0" d="M80.6,24.1l-2.6,2.6c-0.4,0.4-1,0.4-1.4,0v0c-0.4-0.4-0.4-1,0-1.4l2.6-2.6c0.4-0.4,1-0.4,1.4,0v0
			C81,23,81,23.7,80.6,24.1z"/>
		<path class="st0" d="M85.5,22.9l-2.3,2.3c-0.4,0.4-1,0.4-1.4,0l0,0c-0.4-0.4-0.4-1,0-1.4l2.3-2.3c0.4-0.4,1-0.4,1.4,0v0
			C85.9,21.8,85.9,22.5,85.5,22.9z"/>
		<path class="st0" d="M81.9,26.7l-2.6-2.6c-0.4-0.4-0.4-1,0-1.4l0,0c0.4-0.4,1-0.4,1.4,0l2.6,2.6c0.4,0.4,0.4,1,0,1.4v0
			C82.9,27.1,82.2,27.1,81.9,26.7z"/>
		<path class="st0" d="M87.2,26.1L84,22.9c-0.4-0.4-0.4-1,0-1.4v0c0.4-0.4,1-0.4,1.4,0l3.2,3.2c0.4,0.4,0.4,1,0,1.4v0
			C88.3,26.5,87.6,26.5,87.2,26.1z"/>
	</g>
	<g>
		<path class="st0" d="M48,24.1l-2.6,2.6c-0.4,0.4-1,0.4-1.4,0l0,0c-0.4-0.4-0.4-1,0-1.4l2.6-2.6c0.4-0.4,1-0.4,1.4,0l0,0
			C48.4,23,48.4,23.7,48,24.1z"/>
		<path class="st0" d="M52.8,22.9l-2.3,2.3c-0.4,0.4-1,0.4-1.4,0h0c-0.4-0.4-0.4-1,0-1.4l2.3-2.3c0.4-0.4,1-0.4,1.4,0l0,0
			C53.2,21.8,53.2,22.5,52.8,22.9z"/>
		<path class="st0" d="M49.2,26.7l-2.6-2.6c-0.4-0.4-0.4-1,0-1.4l0,0c0.4-0.4,1-0.4,1.4,0l2.6,2.6c0.4,0.4,0.4,1,0,1.4v0
			C50.2,27.1,49.6,27.1,49.2,26.7z"/>
		<path class="st0" d="M54.6,26.1l-3.2-3.2c-0.4-0.4-0.4-1,0-1.4v0c0.4-0.4,1-0.4,1.4,0l3.2,3.2c0.4,0.4,0.4,1,0,1.4l0,0
			C55.6,26.5,55,26.5,54.6,26.1z"/>
	</g>
	<g>
		<path class="st0" d="M16.2,24.1l-2.6,2.6c-0.4,0.4-1,0.4-1.4,0l0,0c-0.4-0.4-0.4-1,0-1.4l2.6-2.6c0.4-0.4,1-0.4,1.4,0l0,0
			C16.6,23,16.6,23.7,16.2,24.1z"/>
		<path class="st0" d="M21,22.9l-2.3,2.3c-0.4,0.4-1,0.4-1.4,0h0c-0.4-0.4-0.4-1,0-1.4l2.3-2.3c0.4-0.4,1-0.4,1.4,0l0,0
			C21.4,21.8,21.4,22.5,21,22.9z"/>
		<path class="st0" d="M17.4,26.7l-2.6-2.6c-0.4-0.4-0.4-1,0-1.4l0,0c0.4-0.4,1-0.4,1.4,0l2.6,2.6c0.4,0.4,0.4,1,0,1.4l0,0
			C18.5,27.1,17.8,27.1,17.4,26.7z"/>
		<path class="st0" d="M22.8,26.1l-3.2-3.2c-0.4-0.4-0.4-1,0-1.4l0,0c0.4-0.4,1-0.4,1.4,0l3.2,3.2c0.4,0.4,0.4,1,0,1.4l0,0
			C23.8,26.5,23.2,26.5,22.8,26.1z"/>
	</g>
	<g>
		<linearGradient id="SVGID_1_" gradientUnits="userSpaceOnUse" x1="4.6374" y1="60.419" x2="95.3626" y2="60.419">
			<stop  offset="0" style="stop-color:#20E2AD"/>
			<stop  offset="1" style="stop-color:#08AEEC"/>
		</linearGradient>
		<path class="st1" d="M5.6,40c0-1.1,0.9-2,2-2h84.7c1.1,0,2,0.9,2,2v40.9c0,1.1-0.9,2-2,2H7.6c-1.1,0-2-0.9-2-2V40z"/>
	</g>
	<g>
		<path class="st2" d="M5.6,19.2c0-1.1,0.9-2,2-2h20.9c1.1,0,2,0.9,2,2V29c0,1.1-0.9,2-2,2H7.6c-1.1,0-2-0.9-2-2V19.2z"/>
	</g>
	<g>
		<linearGradient id="SVGID_2_" gradientUnits="userSpaceOnUse" x1="36.5458" y1="24.074" x2="63.4542" y2="24.074">
			<stop  offset="0" style="stop-color:#20E2AD"/>
			<stop  offset="1" style="stop-color:#08AEEC"/>
		</linearGradient>
		<path class="st3" d="M37.5,19.2c0-1.1,0.9-2,2-2h20.9c1.1,0,2,0.9,2,2V29c0,1.1-0.9,2-2,2H39.5c-1.1,0-2-0.9-2-2V19.2z"/>
	</g>
	<g>
		<path class="st2" d="M69.5,19.2c0-1.1,0.9-2,2-2h20.9c1.1,0,2,0.9,2,2V29c0,1.1-0.9,2-2,2H71.5c-1.1,0-2-0.9-2-2V19.2z"/>
	</g>
	<g>
		<path class="st0" d="M49.6,65.5L37.9,53.9c-0.2-0.2-0.5-0.3-0.7-0.3c-0.3,0-0.5,0.1-0.7,0.3l-3,3L29.3,61l-3.9-3.9c0,0,0,0,0,0
			c-0.4-0.4-1-0.4-1.4,0l-8.5,8.5c-0.4,0.4-0.4,1,0,1.4c0.4,0.4,1,0.4,1.4,0l7.8-7.8l0,0l6.9,6.9l0.9,0.9c0.2,0.2,0.5,0.3,0.7,0.3
			c0.1,0,0.3,0,0.4-0.1c0.1,0,0.2-0.1,0.3-0.2c0.4-0.4,0.4-1,0-1.4l-0.3-0.3l-2.8-2.8l0.8-0.8l2-2l3.7-3.7l11,11
			c0.2,0.2,0.5,0.3,0.7,0.3c0.3,0,0.5-0.1,0.7-0.3C49.9,66.6,49.9,65.9,49.6,65.5z"/>
		<g>
			<path class="st4" d="M83.9,56.4h-28c-0.6,0-1-0.4-1-1l0,0c0-0.6,0.4-1,1-1h28c0.6,0,1,0.4,1,1l0,0C84.9,56,84.4,56.4,83.9,56.4z"
				/>
			<path class="st4" d="M78.9,61.4h-23c-0.6,0-1-0.4-1-1l0,0c0-0.6,0.4-1,1-1h23c0.6,0,1,0.4,1,1l0,0C79.9,61,79.4,61.4,78.9,61.4z"
				/>
			<path class="st4" d="M73.9,66.4h-18c-0.6,0-1-0.4-1-1l0,0c0-0.6,0.4-1,1-1h18c0.6,0,1,0.4,1,1l0,0C74.9,66,74.4,66.4,73.9,66.4z"
				/>
		</g>
	</g>
</g>
</svg>
