<?xml version="1.0" encoding="utf-8"?>
<!-- Generator: Adobe Illustrator 22.0.1, SVG Export Plug-In . SVG Version: 6.00 Build 0)  -->
<svg version="1.1" id="Layer_1" xmlns="http://www.w3.org/2000/svg" xmlns:xlink="http://www.w3.org/1999/xlink" x="0px" y="0px"
	 viewBox="0 0 100 100" style="enable-background:new 0 0 100 100;" xml:space="preserve">
<style type="text/css">
	.st0{fill:url(#SVGID_1_);}
	.st1{fill:none;stroke:url(#SVGID_2_);stroke-width:2;stroke-miterlimit:10;}
	.st2{fill:none;stroke:#DFDEE9;stroke-width:2;stroke-miterlimit:10;}
	.st3{fill:#DEDDE8;}
	.st4{fill:#FFFFFF;}
	.st5{fill:#DEDCE7;}
	.st6{fill:url(#SVGID_3_);}
</style>
<g>
	<linearGradient id="SVGID_1_" gradientUnits="userSpaceOnUse" x1="35.9658" y1="46" x2="63.9658" y2="46">
		<stop  offset="0" style="stop-color:#20E2AD"/>
		<stop  offset="1" style="stop-color:#08AEEC"/>
	</linearGradient>
	<path class="st0" d="M64,64c0,1.1-0.9,2-2,2H38c-1.1,0-2-0.9-2-2V28c0-1.1,0.9-2,2-2h24c1.1,0,2,0.9,2,2V64z"/>
	<linearGradient id="SVGID_2_" gradientUnits="userSpaceOnUse" x1="34.9658" y1="46" x2="64.9658" y2="46">
		<stop  offset="0" style="stop-color:#20E2AD"/>
		<stop  offset="1" style="stop-color:#08AEEC"/>
	</linearGradient>
	<path class="st1" d="M64,64c0,1.1-0.9,2-2,2H38c-1.1,0-2-0.9-2-2V28c0-1.1,0.9-2,2-2h24c1.1,0,2,0.9,2,2V64z"/>
</g>
<g>
	<path class="st2" d="M98,64c0,1.1-0.9,2-2,2H72c-1.1,0-2-0.9-2-2V28c0-1.1,0.9-2,2-2h24c1.1,0,2,0.9,2,2V64z"/>
</g>
<g>
	<path class="st2" d="M30,64c0,1.1-0.9,2-2,2H4c-1.1,0-2-0.9-2-2V28c0-1.1,0.9-2,2-2h24c1.1,0,2,0.9,2,2V64z"/>
</g>
<g>
	<path class="st3" d="M82,46l-2.6,2.6c-0.4,0.4-1,0.4-1.4,0l0,0c-0.4-0.4-0.4-1,0-1.4l2.6-2.6c0.4-0.4,1-0.4,1.4,0l0,0
		C82.4,44.9,82.4,45.6,82,46z"/>
	<path class="st3" d="M86.8,44.8l-2.3,2.3c-0.4,0.4-1,0.4-1.4,0l0,0c-0.4-0.4-0.4-1,0-1.4l2.3-2.3c0.4-0.4,1-0.4,1.4,0l0,0
		C87.2,43.8,87.2,44.4,86.8,44.8z"/>
	<path class="st3" d="M83.2,48.6L80.6,46c-0.4-0.4-0.4-1,0-1.4l0,0c0.4-0.4,1-0.4,1.4,0l2.6,2.6c0.4,0.4,0.4,1,0,1.4l0,0
		C84.2,49,83.6,49,83.2,48.6z"/>
	<path class="st3" d="M88.6,48l-3.2-3.2c-0.4-0.4-0.4-1,0-1.4l0,0c0.4-0.4,1-0.4,1.4,0l3.2,3.2c0.4,0.4,0.4,1,0,1.4l0,0
		C89.6,48.4,89,48.4,88.6,48z"/>
</g>
<g>
	<path class="st3" d="M14,46l-2.6,2.6c-0.4,0.4-1,0.4-1.4,0l0,0c-0.4-0.4-0.4-1,0-1.4l2.6-2.6c0.4-0.4,1-0.4,1.4,0l0,0
		C14.4,44.9,14.4,45.6,14,46z"/>
	<path class="st3" d="M18.8,44.8l-2.3,2.3c-0.4,0.4-1,0.4-1.4,0l0,0c-0.4-0.4-0.4-1,0-1.4l2.3-2.3c0.4-0.4,1-0.4,1.4,0l0,0
		C19.2,43.8,19.2,44.4,18.8,44.8z"/>
	<path class="st3" d="M15.2,48.6L12.6,46c-0.4-0.4-0.4-1,0-1.4l0,0c0.4-0.4,1-0.4,1.4,0l2.6,2.6c0.4,0.4,0.4,1,0,1.4l0,0
		C16.2,49,15.6,49,15.2,48.6z"/>
	<path class="st3" d="M20.6,48l-3.2-3.2c-0.4-0.4-0.4-1,0-1.4l0,0c0.4-0.4,1-0.4,1.4,0l3.2,3.2c0.4,0.4,0.4,1,0,1.4l0,0
		C21.6,48.4,21,48.4,20.6,48z"/>
</g>
<g>
	<path class="st4" d="M48,46l-2.6,2.6c-0.4,0.4-1,0.4-1.4,0l0,0c-0.4-0.4-0.4-1,0-1.4l2.6-2.6c0.4-0.4,1-0.4,1.4,0l0,0
		C48.4,44.9,48.4,45.6,48,46z"/>
	<path class="st4" d="M52.8,44.8l-2.3,2.3c-0.4,0.4-1,0.4-1.4,0l0,0c-0.4-0.4-0.4-1,0-1.4l2.3-2.3c0.4-0.4,1-0.4,1.4,0l0,0
		C53.2,43.8,53.2,44.4,52.8,44.8z"/>
	<path class="st4" d="M49.2,48.6L46.6,46c-0.4-0.4-0.4-1,0-1.4l0,0c0.4-0.4,1-0.4,1.4,0l2.6,2.6c0.4,0.4,0.4,1,0,1.4l0,0
		C50.2,49,49.6,49,49.2,48.6z"/>
	<path class="st4" d="M54.6,48l-3.2-3.2c-0.4-0.4-0.4-1,0-1.4l0,0c0.4-0.4,1-0.4,1.4,0l3.2,3.2c0.4,0.4,0.4,1,0,1.4l0,0
		C55.6,48.4,54.9,48.4,54.6,48z"/>
</g>
<path class="st4" d="M54,57h-8c-0.6,0-1-0.4-1-1l0,0c0-0.6,0.4-1,1-1h8c0.6,0,1,0.4,1,1l0,0C55,56.5,54.6,57,54,57z"/>
<circle class="st5" cx="41" cy="75.6" r="1"/>
<linearGradient id="SVGID_3_" gradientUnits="userSpaceOnUse" x1="47.9681" y1="24.4422" x2="51.9681" y2="24.4422" gradientTransform="matrix(1 0 0 -1 0 100)">
	<stop  offset="0" style="stop-color:#20E2AD"/>
	<stop  offset="1" style="stop-color:#08AEEC"/>
</linearGradient>
<circle class="st6" cx="50" cy="75.6" r="2"/>
<circle class="st5" cx="59" cy="75.6" r="1"/>
</svg>
