<?xml version="1.0" encoding="utf-8"?>
<!-- Generator: Adobe Illustrator 22.0.1, SVG Export Plug-In . SVG Version: 6.00 Build 0)  -->
<svg version="1.1" id="Layer_1" xmlns="http://www.w3.org/2000/svg" xmlns:xlink="http://www.w3.org/1999/xlink" x="0px" y="0px"
	 viewBox="0 0 100 100" style="enable-background:new 0 0 100 100;" xml:space="preserve">
<style type="text/css">
	.st0{fill:none;stroke:#DFDEE9;stroke-width:2;stroke-miterlimit:10;}
	.st1{fill:none;stroke:url(#SVGID_1_);stroke-width:2;stroke-miterlimit:10;}
	.st2{fill:#DEDDE8;}
	.st3{fill:#DDDDE9;}
	.st4{fill:url(#SVGID_2_);}
	.st5{fill:url(#SVGID_3_);}
	.st6{fill:#DEDCE7;}
</style>
<g>
	<path class="st0" d="M6,32c0-1.1,0.9-2,2-2h84c1.1,0,2,0.9,2,2v36c0,1.1-0.9,2-2,2H8c-1.1,0-2-0.9-2-2V32z"/>
</g>
<g>
	<linearGradient id="SVGID_1_" gradientUnits="userSpaceOnUse" x1="5" y1="50" x2="62.8839" y2="50">
		<stop  offset="0" style="stop-color:#20E2AD"/>
		<stop  offset="1" style="stop-color:#08AEEC"/>
	</linearGradient>
	<path class="st1" d="M6,32c0-1.1,0.9-2,2-2h51.9c1.1,0,2,0.9,2,2v36c0,1.1-0.9,2-2,2H8c-1.1,0-2-0.9-2-2V32z"/>
</g>
<g>
	<g>
		<path class="st2" d="M28.3,42.5l-6.4,6.4c-0.4,0.4-1,0.4-1.4,0l0,0c-0.4-0.4-0.4-1,0-1.4l6.4-6.4c0.4-0.4,1-0.4,1.4,0l0,0
			C28.7,41.5,28.7,42.2,28.3,42.5z"/>
		<path class="st2" d="M28.3,41.1l6.4,6.4c0.4,0.4,0.4,1,0,1.4l0,0c-0.4,0.4-1,0.4-1.4,0l-6.4-6.4c-0.4-0.4-0.4-1,0-1.4l0,0
			C27.2,40.7,27.9,40.7,28.3,41.1z"/>
		<path class="st2" d="M38.8,40.2l-6.4,6.4c-0.4,0.4-1,0.4-1.4,0h0c-0.4-0.4-0.4-1,0-1.4l6.4-6.4c0.4-0.4,1-0.4,1.4,0v0
			C39.2,39.2,39.2,39.8,38.8,40.2z"/>
		<path class="st2" d="M38.8,38.8l8.6,8.6c0.4,0.4,0.4,1,0,1.4h0c-0.4,0.4-1,0.4-1.4,0l-8.6-8.6c-0.4-0.4-0.4-1,0-1.4v0
			C37.8,38.4,38.4,38.4,38.8,38.8z"/>
	</g>
	<g>
		<path class="st3" d="M50.4,56.5h-33c-0.6,0-1-0.4-1-1l0,0c0-0.6,0.4-1,1-1h33c0.6,0,1,0.4,1,1l0,0C51.4,56,51,56.5,50.4,56.5z"/>
		<path class="st3" d="M45.4,61.5h-23c-0.6,0-1-0.4-1-1l0,0c0-0.6,0.4-1,1-1h23c0.6,0,1,0.4,1,1l0,0C46.4,61,46,61.5,45.4,61.5z"/>
	</g>
</g>
<path class="st3" d="M86.9,41.5h-18c-0.6,0-1-0.4-1-1l0,0c0-0.6,0.4-1,1-1h18c0.6,0,1,0.4,1,1l0,0C87.9,41.1,87.5,41.5,86.9,41.5z"
	/>
<path class="st3" d="M81.9,46.5h-13c-0.6,0-1-0.4-1-1l0,0c0-0.6,0.4-1,1-1h13c0.6,0,1,0.4,1,1l0,0C82.9,46.1,82.5,46.5,81.9,46.5z"
	/>
<g>
	<linearGradient id="SVGID_2_" gradientUnits="userSpaceOnUse" x1="83.1001" y1="59.2133" x2="87.9286" y2="59.2133">
		<stop  offset="0" style="stop-color:#20E2AD"/>
		<stop  offset="1" style="stop-color:#08AEEC"/>
	</linearGradient>
	<path class="st4" d="M86.2,61.3l-2.8-2.8c-0.4-0.4-0.4-1,0-1.4l0,0c0.4-0.4,1-0.4,1.4,0l2.8,2.8c0.4,0.4,0.4,1,0,1.4l0,0
		C87.2,61.7,86.6,61.7,86.2,61.3z"/>
	<linearGradient id="SVGID_3_" gradientUnits="userSpaceOnUse" x1="83.1001" y1="62.0426" x2="87.9286" y2="62.0426">
		<stop  offset="0" style="stop-color:#20E2AD"/>
		<stop  offset="1" style="stop-color:#08AEEC"/>
	</linearGradient>
	<path class="st5" d="M87.6,61.3l-2.8,2.8c-0.4,0.4-1,0.4-1.4,0l0,0c-0.4-0.4-0.4-1,0-1.4l2.8-2.8c0.4-0.4,1-0.4,1.4,0h0
		C88,60.3,88,60.9,87.6,61.3z"/>
</g>
<path class="st6" d="M69.6,59.9l2.8,2.8c0.4,0.4,0.4,1,0,1.4l0,0c-0.4,0.4-1,0.4-1.4,0l-2.8-2.8c-0.4-0.4-0.4-1,0-1.4l0,0
	C68.6,59.5,69.2,59.5,69.6,59.9z"/>
<path class="st6" d="M68.2,59.9l2.8-2.8c0.4-0.4,1-0.4,1.4,0l0,0c0.4,0.4,0.4,1,0,1.4l-2.8,2.8c-0.4,0.4-1,0.4-1.4,0v0
	C67.8,60.9,67.8,60.3,68.2,59.9z"/>
</svg>
